<?xml version="1.0" encoding="UTF-8"?>
<svg version="1.1" xmlns="http://www.w3.org/2000/svg" width="625" height="627">
<path d="M0 0 C206.25 0 412.5 0 625 0 C625 206.91 625 413.82 625 627 C418.75 627 212.5 627 0 627 C0 420.09 0 213.18 0 0 Z " fill="#020202" transform="translate(0,0)"/>
<path d="M0 0 C206.25 0 412.5 0 625 0 C625 206.91 625 413.82 625 627 C418.75 627 212.5 627 0 627 C0 420.09 0 213.18 0 0 Z M101.16015625 30.82421875 C100.18860596 31.43410645 99.21705566 32.04399414 98.21606445 32.67236328 C97.17538818 33.3373584 96.13471191 34.00235352 95.0625 34.6875 C93.46378052 35.7081958 93.46378052 35.7081958 91.83276367 36.74951172 C89.63186344 38.15485659 87.43175616 39.56144401 85.23242188 40.96923828 C82.23376844 42.85313551 79.20291436 44.65564238 76.140625 46.43359375 C64.00907881 53.34939205 64.00907881 53.34939205 57.78515625 65.375 C57.52605469 66.57125 57.26695313 67.7675 57 69 C56.31791495 71.25249107 55.58493201 73.48498481 54.84985352 75.72070312 C54.0609033 78.12987574 53.30298408 80.54666403 52.5546875 82.96875 C52.17521973 84.19658203 52.17521973 84.19658203 51.78808594 85.44921875 C51.52801758 86.29097656 51.26794922 87.13273437 51 88 C49.90077703 91.54322632 48.79538531 95.08447424 47.6875 98.625 C47.43299072 99.44887207 47.17848145 100.27274414 46.91625977 101.12158203 C45.11293439 106.88706561 45.11293439 106.88706561 44 108 C43.79871526 113.5469797 44.24079532 118.79101441 45.05859375 124.26953125 C45.1672023 125.03118088 45.27581085 125.79283051 45.38771057 126.57756042 C45.73238856 128.98999773 46.08439692 131.40128271 46.4375 133.8125 C47.98093817 144.44256789 49.48544667 155.01839066 50.17700195 165.74560547 C50.8115344 173.77154114 55.10758317 178.80932586 59.875 184.92578125 C63.64767523 189.76745954 66.98731188 194.86730969 70.34790039 199.99926758 C73.05027557 204.1111186 75.80989351 208.16170921 78.68359375 212.15625 C79.59165771 213.43290527 79.59165771 213.43290527 80.51806641 214.73535156 C81.68995132 216.37758484 82.87532203 218.01030071 84.07568359 219.63183594 C87.99030882 225.15794405 87.99030882 225.15794405 88.03515625 229.0546875 C87.69355469 230.02664062 87.35195312 230.99859375 87 232 C86.79576416 232.60457031 86.59152832 233.20914063 86.38110352 233.83203125 C85.6739788 235.86605322 84.90823962 237.86914243 84.125 239.875 C83.86847656 240.54402344 83.61195312 241.21304688 83.34765625 241.90234375 C82.82661805 243.26123233 82.30364731 244.61938139 81.77880859 245.97680664 C80.4960427 249.30918312 79.25007921 252.65525539 78 256 C76.71395277 259.43963845 75.4212475 262.87669341 74.125 266.3125 C73.79886719 267.18583984 73.47273438 268.05917969 73.13671875 268.95898438 C71.0507 274.47435302 68.74854664 279.8420842 66.28466797 285.19848633 C56.7956135 304.6994089 56.7956135 304.6994089 58.26416016 325.51074219 C59.88295437 330.98692859 60.9612314 336.61320343 62.1875 342.1875 C62.64429032 344.20564156 63.10522847 346.22280582 63.56655884 348.23991394 C65.79194126 357.97601547 67.90308212 367.73556293 70 377.5 C72.56903435 389.4503676 75.18114886 401.38960735 77.875 413.3125 C78.16117188 414.5809375 78.44734375 415.849375 78.7421875 417.15625 C80.36374941 424.30543825 80.36374941 424.30543825 82.13671875 431.41796875 C83 435 83 435 83.46484375 438.5625 C84.15930484 443.61312613 84.71496113 447.61251436 88.25390625 451.43359375 C91.08152375 453.49699031 93.95768135 455.27059852 97 457 C98.64981812 458.05630194 100.2956427 459.11886618 101.9375 460.1875 C102.85144531 460.75984375 103.76539063 461.3321875 104.70703125 461.921875 C108.87415049 464.55165843 112.99813778 467.24513671 117.125 469.9375 C124.82868629 474.95696739 132.56277522 479.92695121 140.3125 484.875 C155.89135038 494.82928152 171.39093746 504.89704162 186.75 515.1875 C195.54029296 521.07274818 204.44908527 526.74563705 213.40820312 532.36914062 C228.00787741 541.55582339 242.47026678 550.92938752 256.7951355 560.53707886 C264.1150485 565.44524143 271.4791895 570.25450419 278.98706055 574.87084961 C282.36796895 576.95552221 285.65086214 579.11828823 288.875 581.4375 C293.60112373 584.78214141 298.42920689 587.95340195 303.3125 591.0625 C304.09028809 591.57675537 304.86807617 592.09101074 305.66943359 592.62084961 C309.7918774 595.370821 309.7918774 595.370821 314.51953125 595.6328125 C315.33808594 595.09398437 316.15664063 594.55515625 317 594 C317.59047119 593.64768311 318.18094238 593.29536621 318.78930664 592.93237305 C321.01315604 591.60092844 323.19363504 590.21242637 325.375 588.8125 C326.20008057 588.28712646 327.02516113 587.76175293 327.87524414 587.22045898 C337.35949949 581.1641413 346.77378646 574.99954611 356.18945312 568.83740234 C361.33818339 565.47140652 366.49765186 562.1219517 371.65649414 558.77148438 C375.74588816 556.11538984 379.83384477 553.45716142 383.91796875 550.79296875 C392.68282015 545.07912944 401.47579204 539.41467376 410.3125 533.8125 C417.13143145 529.48838606 423.90358479 525.10938304 430.60644531 520.60766602 C439.65076406 514.53727967 448.81067306 508.6415433 458.01953125 502.82421875 C468.8125924 496.00182229 479.49067651 489.03228048 490.08816528 481.91134644 C499.13840384 475.83576893 508.29720235 469.96753982 517.60888672 464.29711914 C519.43539338 463.17557134 521.24894707 462.03267073 523.04931641 460.86962891 C525.22510384 459.49099411 527.38509835 458.22942049 529.63427734 456.98583984 C535.94968988 453.28601509 540.31539563 449.96373529 542.5453949 442.78688049 C543.55518699 438.7618282 544.29497448 434.71263132 545 430.625 C545.34425402 428.8847229 545.69409114 427.14554154 546.04931641 425.4074707 C546.752747 421.92615012 547.42604214 418.44129707 548.07128906 414.94873047 C549.13903401 409.19217435 550.35905138 403.47439043 551.6015625 397.75341797 C552.09972258 395.45666097 552.58752671 393.1576209 553.0625 390.85595703 C554.0164891 386.25770082 555.0279834 381.769582 556.4765625 377.30078125 C557.8274066 372.97825212 558.64828557 368.62750937 559.390625 364.16796875 C560.47705685 357.65466089 561.79527528 351.23111601 563.296875 344.80078125 C563.49655884 343.94112762 563.69624268 343.081474 563.90197754 342.19577026 C564.72507378 338.66481922 565.553716 335.13530292 566.39501953 331.60864258 C567.01817912 328.98742705 567.62723362 326.36324613 568.234375 323.73828125 C568.42698914 322.94762772 568.61960327 322.15697418 568.8180542 321.34236145 C570.33372324 314.71822197 569.38970013 309.74036965 567.25 303.3125 C566.94578125 302.38050781 566.6415625 301.44851563 566.328125 300.48828125 C565.20697849 297.54362292 563.98427541 294.72685665 562.66796875 291.8671875 C559.93311606 285.92454902 557.47404781 279.89235761 555.0625 273.8125 C554.62647461 272.71824707 554.19044922 271.62399414 553.74121094 270.49658203 C550.86408799 263.25037596 548.07266556 255.97916891 545.38671875 248.66015625 C544.3918951 246.03438227 543.36401901 243.45427805 542.26953125 240.87109375 C541.98432617 240.19062988 541.69912109 239.51016602 541.40527344 238.80908203 C540.61518777 236.93732056 539.81007294 235.07192311 539.00390625 233.20703125 C537.91286081 229.72162927 538.03505378 228.43955576 539 225 C540.08813477 222.97045898 540.08813477 222.97045898 541.44140625 220.99609375 C541.93858154 220.26156982 542.43575684 219.5270459 542.94799805 218.77026367 C543.74717651 217.61554565 543.74717651 217.61554565 544.5625 216.4375 C545.66410707 214.81773865 546.76566953 213.19794695 547.8671875 211.578125 C548.40569336 210.79244141 548.94419922 210.00675781 549.49902344 209.19726562 C551.42409037 206.37917805 553.30671923 203.5353219 555.1875 200.6875 C566.78920094 183.29700858 566.78920094 183.29700858 569.52929688 180.36181641 C575.1286405 174.05147208 575.46261073 167.00101244 576.25 158.875 C576.39608636 157.53619969 576.54451148 156.19765245 576.6953125 154.859375 C576.9925357 152.20882125 577.27956858 149.55787425 577.56103516 146.90551758 C578.61017567 137.57120124 580.07919225 128.29712311 581.6328125 119.03515625 C582.35841238 113.03737852 582.02980147 108.21280453 580.05859375 102.4921875 C579.43537231 100.65515259 579.43537231 100.65515259 578.79956055 98.78100586 C578.34600892 97.47884061 577.89197936 96.17684174 577.4375 94.875 C576.97672897 93.53489277 576.51685649 92.19447628 576.05786133 90.85375977 C575.36568004 88.83227215 574.67273657 86.81108957 573.97550964 84.79133606 C572.57432078 80.72358098 571.2363433 76.64210289 569.953125 72.53515625 C569.65092041 71.57947754 569.34871582 70.62379883 569.03735352 69.63916016 C568.48745677 67.89105403 567.94815035 66.13956612 567.42163086 64.38427734 C564.69883446 55.86925421 558.80799627 51.93201632 551.75 46.9375 C550.57594604 46.1029126 550.57594604 46.1029126 549.37817383 45.25146484 C547.74274762 44.08908497 546.10642309 42.92796803 544.46923828 41.76806641 C542.03031456 40.02170635 539.62031867 38.24129012 537.21484375 36.44921875 C535.70578317 35.34107229 534.19667063 34.23299659 532.6875 33.125 C531.63997559 32.33017212 531.63997559 32.33017212 530.57128906 31.51928711 C529.91225586 31.04112549 529.25322266 30.56296387 528.57421875 30.0703125 C527.71703247 29.43246826 527.71703247 29.43246826 526.8425293 28.78173828 C524.18135622 27.65267028 522.73227132 28.13155815 520 29 C517.33546297 30.40184078 517.33546297 30.40184078 514.640625 32.2109375 C513.61622314 32.87303223 512.59182129 33.53512695 511.53637695 34.21728516 C510.45187256 34.92933105 509.36736816 35.64137695 508.25 36.375 C507.11530681 37.11190397 505.98012984 37.84806354 504.84448242 38.58349609 C502.58737952 40.04687321 500.33307257 41.51439047 498.08154297 42.98632812 C494.82286127 45.11575346 491.55694348 47.2336594 488.28808594 49.34741211 C486.97164948 50.19873589 485.65589278 51.05111174 484.34082031 51.90454102 C477.50671743 56.33574409 470.62907756 60.69845516 463.74731445 65.05517578 C462.87163818 65.61060059 461.99596191 66.16602539 461.09375 66.73828125 C460.23652344 67.27275879 459.37929688 67.80723633 458.49609375 68.35791016 C455.97413316 69.96406621 455.97413316 69.96406621 453.66015625 71.85693359 C448.22661953 76.07216214 448.22661953 76.07216214 444.81298828 75.87133789 C442.40520316 75.10976753 440.25866943 74.12886513 438 73 C436.27908152 72.25420219 434.55770925 71.50945081 432.8359375 70.765625 C431.013922 69.93079013 429.19366317 69.09211282 427.375 68.25 C426.39845459 67.8075293 425.42190918 67.36505859 424.41577148 66.90917969 C420.32174248 65.04576983 416.25353941 63.19310921 412.32421875 61 C401.02201564 54.93606348 388.62099661 53.30356511 376.13552856 51.10845947 C369.07676185 49.85912208 362.07306599 48.36918637 355.0625 46.875 C345.983142 44.97313421 336.89424766 43.18762009 327.75 41.625 C326.31346069 41.37339111 326.31346069 41.37339111 324.84790039 41.11669922 C313.41209254 39.2265336 303.44659863 40.59709279 292.125 42.75 C290.63672402 43.02691467 289.14836066 43.30336013 287.65991211 43.5793457 C279.20170444 45.1571478 270.76902881 46.83672801 262.36157227 48.66650391 C257.11673677 49.79829363 251.85649323 50.75277575 246.5625 51.625 C245.43497314 51.81231689 245.43497314 51.81231689 244.28466797 52.00341797 C241.08080593 52.52778979 237.8859408 53.01429079 234.6640625 53.41796875 C226.64118613 54.48136837 220.20535355 57.4017986 213 61 C211.21229168 61.82117272 209.42075113 62.63406764 207.625 63.4375 C203.09148755 65.49393864 198.57433402 67.58404661 194.0625 69.6875 C193.42328613 69.98519287 192.78407227 70.28288574 192.12548828 70.58959961 C188.47961787 72.27742414 188.47961787 72.27742414 184.99609375 74.26953125 C181.68431852 75.48147248 179.38405574 74.85933 176 74 C173.28955773 72.53493579 170.88917073 70.73432672 168.4375 68.875 C166.93505904 67.77533895 165.43107455 66.67778457 163.92578125 65.58203125 C163.12994629 64.9988916 162.33411133 64.41575195 161.51416016 63.81494141 C157.11424394 60.63869581 152.6172794 57.60599962 148.125 54.5625 C146.25898457 53.29446213 144.39309906 52.02623306 142.52734375 50.7578125 C141.60937012 50.13422852 140.69139648 49.51064453 139.74560547 48.86816406 C134.63064443 45.38784378 129.52919275 41.88774753 124.42822266 38.38696289 C123.00652289 37.41272847 121.58307349 36.44104137 120.15771484 35.47216797 C118.62036149 34.42326089 117.09016709 33.36382848 115.56494141 32.29736328 C114.36683838 31.47147705 114.36683838 31.47147705 113.14453125 30.62890625 C112.42241455 30.12560791 111.70029785 29.62230957 110.95629883 29.10375977 C106.95547837 26.84646421 104.69234719 28.5894192 101.16015625 30.82421875 Z " fill="#F1F1F1" transform="translate(0,0)"/>
<path d="M0 0 C10.44528987 2.63693108 20.95093721 5.00879122 31.45385742 7.40332031 C34.00735651 7.98607797 36.56033293 8.57108505 39.11328125 9.15625 C40.26341454 9.41723984 40.26341454 9.41723984 41.43678284 9.6835022 C47.75866063 11.13352828 53.93776415 12.61094179 59.8125 15.4296875 C60.73023193 15.86676025 61.64796387 16.30383301 62.59350586 16.75415039 C65.63230528 18.23660923 68.6617006 19.73733706 71.69140625 21.23828125 C75.3925423 23.07048642 79.07886518 24.73538012 82.93359375 26.21484375 C97.70249165 32.2446694 103.44713344 43.23785332 110.88671875 56.82617188 C113.73855288 61.91619183 116.89960695 66.78959265 120.078125 71.6796875 C124.75740187 78.97954299 129.34920066 86.32536046 133.84033203 93.74243164 C136.07844207 97.43560649 138.34372996 101.10636531 140.66796875 104.74609375 C141.13557617 105.48102051 141.60318359 106.21594727 142.08496094 106.97314453 C142.97446586 108.36708319 143.86936826 109.75759734 144.77050781 111.14404297 C147.765625 115.84733206 147.765625 115.84733206 147.765625 119.1796875 C148.425625 119.1796875 149.085625 119.1796875 149.765625 119.1796875 C151.22680664 121.16064453 151.22680664 121.16064453 152.92578125 123.9375 C153.54976807 124.94820557 154.17375488 125.95891113 154.81665039 127.00024414 C155.48043701 128.09071045 156.14422363 129.18117676 156.828125 130.3046875 C158.20242266 132.53558906 159.57741824 134.76606085 160.953125 136.99609375 C161.61570312 138.07391113 162.27828125 139.15172852 162.9609375 140.26220703 C165.03831567 143.62052267 167.16989936 146.93536072 169.328125 150.2421875 C170.3888537 151.90619316 171.44953844 153.57022709 172.50927734 155.23486328 C173.43514946 156.66811188 174.37510657 158.09228534 175.32275391 159.51123047 C186.05549617 175.62411556 192.65426886 191.98164684 198.765625 210.1796875 C199.85886966 213.34084326 200.96198451 216.49841203 202.06616211 219.65576172 C203.04623628 222.46333727 204.01560175 225.27444676 204.984375 228.0859375 C206.60927087 232.77070223 208.32114853 237.41805359 210.078125 242.0546875 C210.55607607 243.32158196 211.03394591 244.58850707 211.51171875 245.85546875 C212.27321815 247.87427246 213.0359099 249.89262767 213.80078125 251.91015625 C214.21650391 253.06451172 214.21650391 253.06451172 214.640625 254.2421875 C214.97707031 255.15677734 214.97707031 255.15677734 215.3203125 256.08984375 C216.48745257 261.56721164 215.63348366 266.47288569 214.015625 271.74609375 C213.46648437 273.57358154 213.46648437 273.57358154 212.90625 275.43798828 C212.52984375 276.67274902 212.1534375 277.90750977 211.765625 279.1796875 C211.09447101 281.50000882 210.42772181 283.82160927 209.765625 286.14453125 C207.765625 293.1171875 207.765625 293.1171875 206.765625 296.59179688 C203.31250534 308.6439938 200.08317934 320.73288539 197.15657043 332.92304993 C196.03344872 337.54370749 194.85888337 342.15008419 193.6683321 346.75377369 C192.77350996 350.22403368 191.9050097 353.69694849 191.09155273 357.18725586 C185.0509175 382.96978435 185.0509175 382.96978435 176.38920593 388.6158905 C173.58054923 390.10251741 170.76082498 391.33142243 167.77212524 392.40777588 C163.20337899 394.16539756 159.08202203 396.92110701 154.96875 399.546875 C154.00424927 400.15825317 154.00424927 400.15825317 153.02026367 400.78198242 C152.35873291 401.2019751 151.69720215 401.62196777 151.015625 402.0546875 C145.56140762 405.49505933 140.05911081 408.72064081 134.359375 411.7421875 C130.57907818 413.83729176 126.98019873 416.19127665 123.37109375 418.56640625 C120.765625 420.1796875 120.765625 420.1796875 117.98828125 421.5546875 C113.84956096 423.64160585 109.95452848 426.05366026 106.015625 428.4921875 C103.72381626 429.90481099 101.43123685 431.31586644 99.13330078 432.71850586 C97.54186728 433.70063924 95.96209135 434.70189338 94.39404297 435.72094727 C88.01402704 439.77135473 81.58376263 442.23821916 74.390625 444.4921875 C73.32457031 444.83830078 72.25851562 445.18441406 71.16015625 445.54101562 C67.05162638 446.8665979 62.96688152 448.17883244 58.765625 449.1796875 C63.254798 436.0185967 68.05810771 422.99107132 73.0324707 410.00708008 C73.71442505 408.22466919 73.71442505 408.22466919 74.41015625 406.40625 C74.81596924 405.35002441 75.22178223 404.29379883 75.63989258 403.20556641 C76.01138428 402.20702637 76.38287598 401.20848633 76.765625 400.1796875 C77.1356665 399.24479492 77.50570801 398.30990234 77.88696289 397.34667969 C79.01547962 393.27912786 79.11902547 389.48374843 79.1796875 385.28125 C79.19905365 384.44628998 79.2184198 383.61132996 79.2383728 382.75106812 C79.29782114 380.10237624 79.34441394 377.45364007 79.390625 374.8046875 C79.42883682 373.00128386 79.46789039 371.19789784 79.5078125 369.39453125 C79.60349381 364.98972766 79.68765211 360.5848387 79.765625 356.1796875 C80.85391602 356.20699951 81.94220703 356.23431152 83.06347656 356.26245117 C87.156752 356.35022783 91.24767893 356.36384437 95.34179688 356.35668945 C97.10305329 356.36360454 98.86435585 356.38981926 100.625 356.43676758 C112.69832737 356.87056856 112.69832737 356.87056856 123.07453918 351.47099304 C125.44868522 349.14791265 127.605065 346.70431002 129.765625 344.1796875 C130.97736737 343.01150838 132.20435545 341.85854819 133.45703125 340.734375 C134.915361 339.37326723 136.3734181 338.01182187 137.82226562 336.640625 C140.14870275 334.48058621 141.7096518 333.19834523 144.765625 332.1796875 C144.77593246 331.56882797 144.78623993 330.95796844 144.79685974 330.32859802 C144.90530088 323.95293282 145.01986662 317.57739825 145.13793945 311.2019043 C145.18116808 308.82465354 145.22285136 306.44737415 145.26293945 304.07006836 C145.32093524 300.646885 145.38454454 297.22384416 145.44921875 293.80078125 C145.46593124 292.74322128 145.48264374 291.68566132 145.49986267 290.59605408 C145.60410311 285.36705793 145.87299505 280.3353402 146.765625 275.1796875 C146.17918213 274.91849121 145.59273926 274.65729492 144.98852539 274.38818359 C142.63432898 273.10830746 141.08308723 271.74077435 139.19921875 269.84375 C138.54888672 269.19148438 137.89855469 268.53921875 137.22851562 267.8671875 C136.56013672 267.1865625 135.89175781 266.5059375 135.203125 265.8046875 C134.53087891 265.13179688 133.85863281 264.45890625 133.16601562 263.765625 C124.765625 255.29015641 124.765625 255.29015641 124.765625 252.1796875 C124.105625 252.1796875 123.445625 252.1796875 122.765625 252.1796875 C122.20101563 251.14972656 121.63640625 250.11976563 121.0546875 249.05859375 C119.02136385 245.50340143 116.6867234 242.33091105 114.140625 239.1171875 C109.64593055 233.38095744 105.37792732 227.51242314 101.171875 221.5625 C99.59229346 219.32987139 97.98982031 217.11763045 96.359375 214.921875 C95.6271875 213.93445313 94.895 212.94703125 94.140625 211.9296875 C93.48835938 211.05828125 92.83609375 210.186875 92.1640625 209.2890625 C90.765625 207.1796875 90.765625 207.1796875 90.765625 205.1796875 C90.06703369 205.45119629 89.36844238 205.72270508 88.64868164 206.00244141 C63.57611591 215.73332304 63.57611591 215.73332304 53.01977539 219.28955078 C49.08623394 220.63251017 45.47620009 222.31897514 41.765625 224.1796875 C41.105625 224.1796875 40.445625 224.1796875 39.765625 224.1796875 C39.72824219 225.17097656 39.69085938 226.16226563 39.65234375 227.18359375 C38.86152682 245.88030631 37.24921477 264.52804721 35.765625 283.1796875 C29.70265229 281.98216175 24.02480207 280.35022691 18.265625 278.1171875 C17.55148437 277.84841797 16.83734375 277.57964844 16.1015625 277.30273438 C10.90961022 275.32367272 10.90961022 275.32367272 9.765625 274.1796875 C4.95075974 273.61193021 0.10358566 273.35954511 -4.734375 273.0546875 C-5.81365265 272.98548599 -5.81365265 272.98548599 -6.91473389 272.91488647 C-19.58705283 272.12544196 -32.06702647 272.19390678 -44.74316406 273.04150391 C-46.82854908 273.15717697 -48.91924982 273.17096662 -51.0078125 273.16015625 C-62.53916529 273.22995863 -73.13105539 278.18661774 -83.70751953 282.36938477 C-86.234375 283.1796875 -86.234375 283.1796875 -90.234375 283.1796875 C-90.80722144 275.74177835 -91.37651632 268.30360344 -91.94335938 260.86523438 C-92.13655417 258.33554956 -92.33055769 255.80592637 -92.52539062 253.27636719 C-92.8055211 249.63752949 -93.08272916 245.99847907 -93.359375 242.359375 C-93.49061768 240.66686111 -93.49061768 240.66686111 -93.62451172 238.94015503 C-93.70459473 237.87950836 -93.78467773 236.81886169 -93.8671875 235.72607422 C-93.93824707 234.79785858 -94.00930664 233.86964294 -94.08251953 232.91329956 C-94.24453294 229.99683037 -94.25963367 227.10005327 -94.234375 224.1796875 C-95.20375 223.9321875 -96.173125 223.6846875 -97.171875 223.4296875 C-100.04701019 222.6133487 -102.67809865 221.57268511 -105.38671875 220.3125 C-110.12209779 218.17840831 -114.94175419 216.46566667 -119.859375 214.8046875 C-128.43606715 211.86036596 -136.85499236 208.64570487 -145.234375 205.1796875 C-145.44320312 205.84484375 -145.65203125 206.51 -145.8671875 207.1953125 C-147.72431918 211.24916564 -150.35134742 214.4469344 -153.109375 217.9296875 C-157.65792386 223.76860483 -162.06459232 229.67005701 -166.296875 235.7421875 C-187.73737866 266.34472577 -187.73737866 266.34472577 -197.34472656 272.015625 C-199.58016467 273.89174973 -200.17703603 274.89551054 -200.76150513 277.79219055 C-200.93018054 281.18245945 -200.9079483 284.52455386 -200.8203125 287.91796875 C-200.81182281 289.15387253 -200.80333313 290.38977631 -200.79458618 291.66313171 C-200.7667255 294.93704661 -200.71289754 298.20916903 -200.6463623 301.48248291 C-200.58480226 304.82734668 -200.55805514 308.17228874 -200.52734375 311.51757812 C-200.46122257 318.07231333 -200.36084134 324.62585389 -200.234375 331.1796875 C-199.244375 331.5096875 -198.254375 331.8396875 -197.234375 332.1796875 C-197.234375 332.8396875 -197.234375 333.4996875 -197.234375 334.1796875 C-196.65099365 334.44088379 -196.0676123 334.70208008 -195.46655273 334.97119141 C-193.09967433 336.25261414 -191.45843827 337.65538727 -189.51953125 339.515625 C-188.83310547 340.16789062 -188.14667969 340.82015625 -187.43945312 341.4921875 C-186.73240234 342.1728125 -186.02535156 342.8534375 -185.296875 343.5546875 C-183.8935631 344.89754509 -182.48865376 346.23873562 -181.08203125 347.578125 C-180.1540271 348.47023682 -180.1540271 348.47023682 -179.20727539 349.38037109 C-178.55621826 349.97414551 -177.90516113 350.56791992 -177.234375 351.1796875 C-176.5115332 351.90140137 -175.78869141 352.62311523 -175.04394531 353.36669922 C-171.14930275 355.87987403 -167.97946095 355.78212776 -163.43359375 355.7890625 C-162.59721878 355.80559875 -161.76084381 355.82213501 -160.89912415 355.83917236 C-158.23996584 355.8875769 -155.58137908 355.90900594 -152.921875 355.9296875 C-151.11390365 355.95785359 -149.30595885 355.98778191 -147.49804688 356.01953125 C-143.07686999 356.09333355 -138.65600897 356.14295402 -134.234375 356.1796875 C-134.25177734 357.78686646 -134.25177734 357.78686646 -134.26953125 359.42651367 C-134.7127394 387.4826647 -134.7127394 387.4826647 -126.31298828 413.89990234 C-124.42107161 417.89870676 -123.01782775 422.0745564 -121.546875 426.2421875 C-119.24117057 432.59120029 -116.78317601 438.83468711 -114.08203125 445.02734375 C-113.234375 447.1796875 -113.234375 447.1796875 -113.234375 449.1796875 C-129.89037669 446.14381832 -145.46372247 438.72233863 -159.41796875 429.36938477 C-161.63103385 427.91988662 -163.9131839 426.60592721 -166.22021484 425.31225586 C-170.83777762 422.71578632 -175.40488298 420.03001402 -179.984375 417.3671875 C-181.0053125 416.77615234 -182.02625 416.18511719 -183.078125 415.57617188 C-188.15818732 412.62032343 -193.17590974 409.60510961 -198.1171875 406.421875 C-201.77624702 404.07079764 -205.41064219 401.95655449 -209.359375 400.1171875 C-213.73266421 397.98948967 -217.73352734 395.69756627 -221.68153381 392.86056519 C-224.26612598 391.08914443 -224.26612598 391.08914443 -227.35325623 389.60379028 C-233.51400758 386.36640303 -237.7324744 383.74373451 -240.20727539 376.89404297 C-240.88363657 374.45869205 -241.506292 372.00795664 -242.08203125 369.546875 C-242.43054756 368.22302906 -242.78362916 366.90037761 -243.14097595 365.57888794 C-244.06379276 362.1193392 -244.92564043 358.64747346 -245.77441406 355.16912842 C-246.63874099 351.6711287 -247.55846089 348.18784084 -248.47460938 344.703125 C-249.82283 339.55672105 -251.13775343 334.40353528 -252.42602539 329.24169922 C-253.95244529 323.17633269 -255.63090032 317.1708648 -257.37791443 311.16557312 C-258.42896498 307.50128685 -259.34628088 303.8241875 -260.234375 300.1171875 C-261.96143629 293.04617365 -264.05129742 286.12355349 -266.234375 279.1796875 C-266.99758809 276.74629234 -267.74751307 274.30869129 -268.484375 271.8671875 C-268.81953125 270.77792969 -269.1546875 269.68867188 -269.5 268.56640625 C-271.33806799 260.08978421 -269.59260069 254.46964138 -266.421875 246.6171875 C-265.5934641 244.49200973 -264.76809741 242.36564351 -263.9453125 240.23828125 C-263.50541992 239.10503418 -263.06552734 237.97178711 -262.61230469 236.80419922 C-260.14119421 230.30418041 -257.85204341 223.73997264 -255.546875 217.1796875 C-252.2450434 207.80795383 -248.9056474 198.45681207 -245.35546875 189.17578125 C-244.63563375 187.25204104 -243.96825584 185.30738719 -243.36889648 183.34277344 C-242.20712811 180.1037222 -240.777734 177.49157949 -238.9609375 174.57421875 C-237.98024292 172.99000122 -237.98024292 172.99000122 -236.97973633 171.3737793 C-236.28001709 170.257854 -235.58029785 169.14192871 -234.859375 167.9921875 C-234.13062476 166.82036596 -233.40235823 165.64824347 -232.67456055 164.47583008 C-228.02308216 156.99380764 -223.32770883 149.5390111 -218.60839844 142.09960938 C-214.90208957 136.25494875 -211.24721752 130.37967862 -207.609375 124.4921875 C-199.81995456 111.88625907 -191.96505609 99.32401688 -184.04223633 86.80151367 C-180.5955561 81.34875997 -177.16967021 75.88342436 -173.75878906 70.40820312 C-172.49126671 68.378864 -171.21846132 66.35281522 -169.94042969 64.33007812 C-166.76075097 59.28979433 -163.66853992 54.2283368 -160.73046875 49.04296875 C-154.10285582 37.56873139 -148.98481071 30.68144643 -136.45263672 26.07080078 C-132.16965874 24.35025603 -128.16389884 22.06144647 -124.109375 19.8671875 C-122.54528773 19.03584439 -120.9802334 18.20631729 -119.4140625 17.37890625 C-118.75132324 17.02658936 -118.08858398 16.67427246 -117.40576172 16.3112793 C-116.33092529 15.75114136 -116.33092529 15.75114136 -115.234375 15.1796875 C-114.3769873 14.69064941 -113.51959961 14.20161133 -112.63623047 13.69775391 C-108.0801573 11.66462179 -103.49366877 10.71509136 -98.625 9.69140625 C-97.5930098 9.46740143 -96.56101959 9.24339661 -95.49775696 9.01260376 C-92.16154061 8.28991571 -88.8230775 7.57829297 -85.484375 6.8671875 C-80.93555661 5.88838016 -76.38770416 4.90512235 -71.83984375 3.921875 C-70.73249374 3.68332291 -69.62514374 3.44477081 -68.48423767 3.19898987 C-62.48556337 1.90229754 -56.50052561 0.56728612 -50.53515625 -0.875 C-49.35856445 -1.15819092 -48.18197266 -1.44138184 -46.96972656 -1.7331543 C-44.9470213 -2.22700193 -42.92653788 -2.73010608 -40.90917969 -3.24536133 C-26.75933512 -6.68452373 -13.81594099 -3.52095495 0 0 Z " fill="#F1F1F1" transform="translate(340.234375,55.8203125)"/>
<path d="M0 0 C1.90339823 0.19771093 3.80707242 0.39277388 5.7109375 0.5859375 C20.1997409 2.26172663 31.50292161 6.2390453 43.95361328 13.81274414 C46.15991551 15.15098141 46.15991551 15.15098141 49.34765625 16.40625 C52.90513245 18.54387929 54.12706835 21.27372397 55.75 24.9375 C56.43019 26.38058548 57.11122009 27.82327521 57.79296875 29.265625 C58.14794434 30.03197266 58.50291992 30.79832031 58.86865234 31.58789062 C60.85635761 35.82581209 62.96417415 40.0035534 65.0625 44.1875 C65.4850708 45.03521973 65.9076416 45.88293945 66.34301758 46.75634766 C69.3134787 52.6972699 72.42352956 58.54278304 75.609375 64.37109375 C76.74455293 66.51709022 77.76156222 68.63403357 78.6875 70.875 C79.93348995 74.10493684 79.93348995 74.10493684 82.05761719 77.14672852 C84.48209413 81.35876345 84.51800243 85.00681042 84.390625 89.77734375 C84.38496521 90.58869278 84.37930542 91.40004181 84.37347412 92.23597717 C84.3512492 94.8037755 84.30108235 97.37013015 84.25 99.9375 C84.2299169 101.68813076 84.21166931 103.43878359 84.1953125 105.18945312 C84.15143044 109.46018378 84.08250275 113.72984793 84 118 C83.34 118 82.68 118 82 118 C81.86134521 118.58362305 81.72269043 119.16724609 81.57983398 119.76855469 C80.1974584 125.088518 78.07801622 130.21115361 76.09765625 135.33203125 C74.56496132 139.32811267 73.30242366 143.33632701 72.12109375 147.44921875 C67.2120084 163.1622868 67.2120084 163.1622868 61.44482422 166.46191406 C48.57349261 170.84744305 35.22633484 169.02875903 22.37109375 165.71484375 C21.49598648 165.49429825 20.62087921 165.27375275 19.71925354 165.04652405 C16.95722277 164.34908615 14.1973672 163.64344523 11.4375 162.9375 C9.55157067 162.45973988 7.6655041 161.98252119 5.77929688 161.50585938 C1.18458855 160.34348877 -3.40818931 159.17376275 -8 158 C-8 153.71 -8 149.42 -8 145 C0.77894741 142.85727113 9.49737577 140.81571315 18.43359375 139.4296875 C21.31249231 138.94768013 24.09302126 138.3078658 26.8894043 137.47363281 C29 137 29 137 31.28027344 137.01416016 C34.37372439 136.88798478 36.248389 136.46690648 39 135 C42.50329116 130.15142651 44.76393682 124.84739314 47.125 119.375 C47.79865746 117.88906709 48.47570945 116.40466816 49.15625 114.921875 C50.81064117 111.29782044 52.41724645 107.65587524 54 104 C51.49177121 105.9758901 49.10074563 107.89759978 46.859375 110.17578125 C41.31837927 115.7886047 41.31837927 115.7886047 37.734375 116.36328125 C34.13811135 115.97976362 30.79184948 114.94221025 27.30932617 113.9753418 C20.45806951 112.4740769 13.49578849 112.69161364 6.51953125 112.69921875 C5.01893498 112.69532137 3.51833979 112.6909846 2.01774597 112.68623352 C-1.11816999 112.67880488 -4.25397333 112.67903691 -7.38989258 112.68432617 C-11.36911758 112.69009962 -15.34787388 112.67322517 -19.3270216 112.6499815 C-22.42524318 112.63510023 -25.52335582 112.63439206 -28.62160683 112.63749123 C-30.08652991 112.63698465 -31.5514602 112.63187474 -33.01634789 112.62167931 C-41.73706878 112.5684465 -49.65895759 113.26440978 -58.11445618 115.45417786 C-60.93719845 115.98812062 -62.36313393 116.0370105 -65 115 C-66.96484375 113.51171875 -66.96484375 113.51171875 -68.9375 111.6875 C-71.8712924 108.99867635 -74.87323312 106.46334852 -78 104 C-76.08636932 108.10560764 -74.16150987 112.20478282 -72.2109375 116.29296875 C-70.81462102 119.22932248 -69.4861059 122.17841422 -68.2265625 125.17578125 C-65.70093337 131.5210314 -65.70093337 131.5210314 -61.0546875 136.23828125 C-58.65384941 136.81855761 -56.47025005 136.92766471 -54 137 C-51.58051142 137.31219208 -49.16385426 137.64687608 -46.75 138 C-45.58984375 138.144375 -44.4296875 138.28875 -43.234375 138.4375 C-40.19132741 138.96672567 -37.84997806 139.85914775 -35 141 C-32.29033721 141.56973795 -29.60121597 142.09323332 -26.875 142.5625 C-19.34285714 143.88571429 -19.34285714 143.88571429 -16 145 C-16 149.29 -16 153.58 -16 158 C-21.43472205 159.44618223 -26.87483649 160.86920633 -32.32080078 162.27246094 C-34.16679266 162.75139667 -36.01125554 163.23627138 -37.85400391 163.72753906 C-51.22088254 167.28526341 -63.22832818 169.50802457 -77.0625 167.0625 C-78.08472656 166.88847656 -79.10695312 166.71445312 -80.16015625 166.53515625 C-81.09730469 166.35855469 -82.03445312 166.18195313 -83 166 C-83.81919922 165.95423828 -84.63839844 165.90847656 -85.48242188 165.86132812 C-88 165 -88 165 -89.66577148 162.29467773 C-90.38615601 160.50719116 -90.38615601 160.50719116 -91.12109375 158.68359375 C-91.38670609 158.03931931 -91.65231842 157.39504486 -91.92597961 156.73124695 C-92.7822321 154.64051242 -93.61001984 152.53976787 -94.4375 150.4375 C-95.01505946 149.01158144 -95.59416085 147.58628646 -96.17480469 146.16162109 C-99.61830566 137.67006545 -102.95419733 129.13377492 -106.046875 120.5078125 C-106.76756321 118.09584837 -106.76756321 118.09584837 -108 117 C-108.36891061 112.14573567 -108.44332996 107.28934559 -108.51489258 102.42260742 C-108.54612411 100.79232145 -108.59343453 99.16224751 -108.65844727 97.53295898 C-109.16459105 84.65734832 -106.64787038 75.97853641 -100 65 C-97.32935369 60.43606267 -95.07358401 55.86978062 -93 51 C-91.04379964 47.07132773 -88.97015771 43.20502561 -86.88061523 39.34594727 C-84.9073506 35.68835153 -82.97253956 32.09632502 -81.45703125 28.22265625 C-77.11083339 17.98413411 -69.4095464 14.51245955 -59.68505859 10.21362305 C-57.76486263 9.34571123 -55.86861277 8.42402605 -53.99072266 7.46801758 C-45.94075864 3.45283319 -38.53228322 1.61541501 -29.625 0.5625 C-28.34206055 0.40201172 -27.05912109 0.24152344 -25.73730469 0.07617188 C-16.84907519 -0.95939391 -8.87078125 -1.33328376 0 0 Z " fill="#F0F0F0" transform="translate(325,331)"/>
<path d="M0 0 C0.99 0.845625 1.98 1.69125 3 2.5625 C3.64710938 3.10003906 4.29421875 3.63757813 4.9609375 4.19140625 C7 6 7 6 8.7890625 8.02734375 C10.79260625 10.18008757 12.37302372 11.65636623 15 13 C20.11929813 13.04910598 24.89264814 11.9435848 29.77420044 10.46124268 C32.73169758 9.84837352 35.5452045 9.85642571 38.56591797 9.83886719 C39.21701035 9.83390228 39.86810272 9.82893738 40.53892517 9.82382202 C42.69002353 9.80923959 44.84104785 9.80240071 46.9921875 9.796875 C48.10234411 9.79263393 48.10234411 9.79263393 49.23492813 9.78830719 C53.16085414 9.77332101 57.08674354 9.76409127 61.01269531 9.75976562 C65.03126803 9.7543189 69.04949538 9.73037082 73.06796074 9.70179367 C76.18762108 9.68297508 79.30720196 9.67795134 82.42691422 9.67642975 C83.90580229 9.67343967 85.38469023 9.66553775 86.86352158 9.65224457 C95.61119094 9.5793026 103.54640716 10.22879836 112.02297974 12.45294189 C115.11126675 13.02044641 117.01653311 12.90753488 120 12 C122.07979355 10.57708796 122.07979355 10.57708796 123.9375 8.75 C124.61683594 8.12480469 125.29617188 7.49960937 125.99609375 6.85546875 C126.98802734 5.93701172 126.98802734 5.93701172 128 5 C129.98243325 3.31095011 131.9909592 1.65745866 134 0 C132.03620363 6.21547683 129.35865805 11.99614002 126.56958008 17.87841797 C125.97973151 19.12994831 125.39707406 20.38489223 124.8215332 21.64306641 C123.98435653 23.47261998 123.12332475 25.29119839 122.26171875 27.109375 C121.75600342 28.19186523 121.25028809 29.27435547 120.72924805 30.38964844 C118.71784637 33.42591933 117.46477301 34.06722902 114 35 C112.02962384 35.3818764 110.04900928 35.71365632 108.0625 36 C104.91023666 36.4555529 102.071111 36.97588819 99.05078125 38 C95.726516 39.08964392 92.59381427 39.56736392 89.125 40 C83.9420382 40.6896021 79.04692574 41.66684981 74 43 C73.01 43 72.02 43 71 43 C71 47.29 71 51.58 71 56 C71.98194336 56.12165527 72.96388672 56.24331055 73.97558594 56.36865234 C78.20163777 56.97417184 82.26681162 58.01385401 86.390625 59.1015625 C88.00368721 59.5138787 89.61697603 59.92530923 91.23046875 60.3359375 C93.73821619 60.97719246 96.24414683 61.62345228 98.74658203 62.28515625 C108.1372892 64.75922148 116.27814998 66.84327413 126 65 C127.52365913 64.81261 129.04840819 64.63382386 130.57421875 64.46484375 C131.94556098 64.29101164 133.31666323 64.11527422 134.6875 63.9375 C135.40099609 63.84662109 136.11449219 63.75574219 136.84960938 63.66210938 C138.56663084 63.44316033 140.28335102 63.2218505 142 63 C140.25671719 66.81786824 138.28908776 68.36872979 135 71 C134.0001089 72.10662105 133.0234885 73.23443284 132.0625 74.375 C128.57711667 78.46553779 124.81898201 82.22553526 121 86 C116.57217914 90.38069781 112.25384867 94.78151962 108.234375 99.546875 C105.06315213 103.28008673 102.02062179 103.90649185 97.39453125 104.9453125 C96.63710129 105.12005096 95.87967133 105.29478943 95.09928894 105.474823 C93.49369493 105.84311703 91.88724442 106.20769375 90.2800293 106.56884766 C87.83700111 107.11947773 85.39799955 107.68579809 82.95898438 108.25390625 C81.39605153 108.61033315 79.83290655 108.96583134 78.26953125 109.3203125 C77.54635208 109.48902863 76.82317291 109.65774475 76.07807922 109.83157349 C69.37549543 111.31664729 63.42525334 111.2917475 56.69140625 109.79296875 C54.95213867 109.4072168 54.95213867 109.4072168 53.17773438 109.01367188 C51.98470703 108.74103516 50.79167969 108.46839844 49.5625 108.1875 C48.37333984 107.92646484 47.18417969 107.66542969 45.95898438 107.39648438 C34.98557655 104.92883853 28.28932771 103.22224255 20.8125 94.625 C19.51105035 93.1818457 18.20762899 91.74046731 16.90234375 90.30078125 C16.25378418 89.57971191 15.60522461 88.85864258 14.93701172 88.11572266 C12.01035468 84.91904887 8.9562805 81.85935029 5.875 78.8125 C5.35526611 78.29703613 4.83553223 77.78157227 4.30004883 77.25048828 C2.86805511 75.83228846 1.43407304 74.41609719 0 73 C-0.90492188 72.07574219 -1.80984375 71.15148437 -2.7421875 70.19921875 C-4.7971115 67.97489017 -4.7971115 67.97489017 -7 67 C-7 66.01 -7 65.02 -7 64 C-7.66 63.67 -8.32 63.34 -9 63 C-7.88625 63.144375 -6.7725 63.28875 -5.625 63.4375 C-4.08347343 63.62614836 -2.54179686 63.81357358 -1 64 C-0.25234375 64.09539062 0.4953125 64.19078125 1.265625 64.2890625 C15.61241368 65.9517698 27.31436729 64.36787915 41.0625 60.5 C43.41205627 59.85242936 45.76284447 59.21000027 48.11558533 58.57409668 C49.56459352 58.18111979 51.01166314 57.78089668 52.45631409 57.37219238 C56.21381054 56.3387805 59.02377258 56 63 56 C63 51.71 63 47.42 63 43 C61.246875 42.71125 59.49375 42.4225 57.6875 42.125 C53.39406425 41.40602798 49.10089385 40.68599919 44.8125 39.9375 C43.46091797 39.70353516 43.46091797 39.70353516 42.08203125 39.46484375 C40 39 40 39 39 38 C37.48967041 37.75147891 35.97036959 37.55689019 34.44921875 37.38671875 C33.05993164 37.2155957 33.05993164 37.2155957 31.64257812 37.04101562 C29.68543515 36.80688286 27.72706364 36.58278353 25.76757812 36.36914062 C24.37249023 36.1922168 24.37249023 36.1922168 22.94921875 36.01171875 C22.09674561 35.91334717 21.24427246 35.81497559 20.3659668 35.71362305 C16.08703217 34.42301053 14.39810911 31.70602337 12.26074219 27.91552734 C11.69516602 26.7342627 11.12958984 25.55299805 10.546875 24.3359375 C10.24179016 23.70265533 9.93670532 23.06937317 9.62237549 22.41690063 C8.98319984 21.08582853 8.34806953 19.75280705 7.71679688 18.41796875 C6.74778165 16.37031234 5.76561991 14.32937503 4.78125 12.2890625 C0 2.29999002 0 2.29999002 0 0 Z " fill="#040404" transform="translate(246,433)"/>
<path d="M0 0 C2.3289542 1.37483426 4.43831867 2.88267944 6.609375 4.4921875 C13.39664688 8.61876848 20.28131862 8.36999765 28 8.38867188 C30.39551782 8.42924113 32.75329706 8.59276228 35.140625 8.7890625 C47.49614798 9.59819203 56.088903 6.27608732 66.75219727 0.14233398 C67.30319092 -0.09283936 67.85418457 -0.3280127 68.421875 -0.5703125 C69.411875 -0.0753125 69.411875 -0.0753125 70.421875 0.4296875 C63.02780971 8.42823112 55.58435963 16.32737968 47.8359375 23.984375 C45.01404763 26.84279418 42.36288504 29.81202044 39.76171875 32.87109375 C36.52038233 36.64162795 33.52585531 37.31746061 28.81640625 38.375 C28.05897629 38.54973846 27.30154633 38.72447693 26.52116394 38.9045105 C24.91556993 39.27280453 23.30911942 39.63738125 21.7019043 39.99853516 C19.25887611 40.54916523 16.81987455 41.11548559 14.38085938 41.68359375 C12.81792653 42.04002065 11.25478155 42.39551884 9.69140625 42.75 C8.96822708 42.91871613 8.24504791 43.08743225 7.49995422 43.26126099 C0.79737043 44.74633479 -5.15287166 44.721435 -11.88671875 43.22265625 C-13.04623047 42.96548828 -14.20574219 42.70832031 -15.40039062 42.44335938 C-16.59341797 42.17072266 -17.78644531 41.89808594 -19.015625 41.6171875 C-20.20478516 41.35615234 -21.39394531 41.09511719 -22.61914062 40.82617188 C-33.59159332 38.35874081 -40.29015269 36.65253951 -47.765625 28.0546875 C-49.06558646 26.61006695 -50.36770939 25.16738879 -51.671875 23.7265625 C-52.64447266 22.6447168 -52.64447266 22.6447168 -53.63671875 21.54101562 C-57.06995215 17.80728795 -60.70805787 14.28032862 -64.3659668 10.76806641 C-67.66565893 7.54277123 -70.15819781 4.32236274 -72.578125 0.4296875 C-68.79628122 0.93631186 -65.91613098 2.20918241 -62.57006836 4.0078125 C-54.80459455 8.10227966 -48.65635597 9.24457504 -39.79345703 8.5546875 C-37.25540956 8.4114783 -34.74103925 8.43241277 -32.19921875 8.4609375 C-21.30323545 8.4655955 -13.80891677 7.85638325 -5.13671875 0.94921875 C-2.578125 -0.5703125 -2.578125 -0.5703125 0 0 Z " fill="#EEEFEF" transform="translate(314.578125,499.5703125)"/>
<path d="M0 0 C2.64 0.33 5.28 0.66 8 1 C7.01 1.495 7.01 1.495 6 2 C5.67 2.99 5.34 3.98 5 5 C4.01 4.67 3.02 4.34 2 4 C2 3.01 2 2.02 2 1 C1.34 0.67 0.68 0.34 0 0 Z " fill="#4B4C4B" transform="translate(237,496)"/>
<path d="M0 0 C-1.3125 1.5 -1.3125 1.5 -3 3 C-3.99 3 -4.98 3 -6 3 C-6 2.34 -6 1.68 -6 1 C-6.99 0.67 -7.98 0.34 -9 0 C-5.62182575 -0.84454356 -3.32534757 -1.10844919 0 0 Z " fill="#393939" transform="translate(388,497)"/>
<path d="M0 0 C1 4 1 4 0.00390625 5.703125 C-1.33072917 7.13541667 -2.66536458 8.56770833 -4 10 C-4.66 9.67 -5.32 9.34 -6 9 C-4.02 6.03 -2.04 3.06 0 0 Z " fill="#BEBFBF" transform="translate(562,189)"/>
</svg>
